<svg xmlns="http://www.w3.org/2000/svg" width="22" height="22" viewBox="0 0 22 22" fill="none">
  <path d="M12.0431 17.9271L11.0273 17.638C10.4035 17.451 9.97961 16.8559 9.97961 16.1588C9.97961 15.4616 10.4035 14.858 11.0593 14.6625L12.0431 14.3904C12.539 14.2459 12.8989 13.8548 13.0348 13.3447L13.2988 12.3075L13.3548 12.112C13.5707 11.5254 14.0826 11.1173 14.6824 11.1173C15.2983 11.1173 15.8261 11.4914 16.0341 12.078L16.362 13.3192C16.418 13.5233 16.506 13.6933 16.6259 13.8463C16.8979 13.1917 17.1058 12.5116 17.2258 11.7719C18.1216 5.95681 13.4587 1.00036 7.98811 1.95254C4.66097 2.53065 1.98165 5.3787 1.44578 8.90687C1.16585 10.7432 1.43779 12.4861 2.10962 13.9908C2.22159 14.2459 2.27757 14.6795 2.21359 14.96L1.66973 17.3745C1.48577 18.1822 1.94966 18.6752 2.70947 18.4797C3.50127 18.2842 4.43703 18.0376 4.98889 17.9016C5.25282 17.8336 5.65272 17.8931 5.89266 18.0121C7.37229 18.7603 9.09983 19.0408 10.8994 18.6752C11.4512 18.5647 11.9711 18.3777 12.475 18.1566C12.347 18.0546 12.203 17.9781 12.0431 17.9271ZM10.4435 5.49772C10.5635 5.17466 10.9154 5.01313 11.2193 5.13215C12.6189 5.71026 13.7147 6.89199 14.2425 8.37978C14.3625 8.71133 14.2025 9.0769 13.8906 9.19593C13.8266 9.22993 13.7547 9.23843 13.6827 9.23843C13.4347 9.23843 13.2108 9.0854 13.1228 8.83036C12.7149 7.68264 11.8671 6.76447 10.7874 6.32238C10.4835 6.19486 10.3315 5.82929 10.4435 5.49772Z" fill="white"/>
  <path d="M18.5002 16.0191C18.5002 16.0891 18.4614 16.2444 18.2749 16.3066L17.2883 16.5785C16.4414 16.8116 15.8044 17.4487 15.5713 18.2955L15.3071 19.2589C15.245 19.4764 15.0741 19.4997 14.9964 19.4997C14.9187 19.4997 14.7477 19.4764 14.6856 19.2589L14.4214 18.2877C14.1884 17.4487 13.5435 16.8116 12.7045 16.5785L11.7333 16.3144C11.5236 16.2522 11.5002 16.0735 11.5002 16.0036C11.5002 15.9259 11.5236 15.7472 11.7333 15.6851L12.7122 15.4287C13.5513 15.1878 14.1884 14.5508 14.4214 13.7117L14.7011 12.6939C14.7711 12.523 14.9264 12.4997 14.9964 12.4997C15.0663 12.4997 15.2294 12.523 15.2916 12.6784L15.5713 13.7039C15.8044 14.543 16.4492 15.1801 17.2883 15.4209L18.2905 15.6928C18.4925 15.7705 18.5002 15.957 18.5002 16.0191Z" fill="white"/>
</svg>
