<svg xmlns="http://www.w3.org/2000/svg" width="22" height="22" viewBox="0 0 22 22" fill="none">
  <path d="M18.3333 11V16.5C18.3333 18.5258 16.6925 20.1667 14.6666 20.1667H7.33329C5.30746 20.1667 3.66663 18.5258 3.66663 16.5V11C3.66663 10.4958 4.07913 10.0833 4.58329 10.0833H6.38913C6.89329 10.0833 7.30579 10.4958 7.30579 11V13.8783C7.30579 14.5567 7.68163 15.18 8.27746 15.5008C8.54329 15.6475 8.83663 15.7208 9.13913 15.7208C9.48746 15.7208 9.83579 15.62 10.1383 15.4183L11.0091 14.85L11.8158 15.3908C12.375 15.7667 13.09 15.8125 13.6858 15.4917C14.2908 15.1708 14.6666 14.5567 14.6666 13.8692V11C14.6666 10.4958 15.0791 10.0833 15.5833 10.0833H17.4166C17.9208 10.0833 18.3333 10.4958 18.3333 11Z" fill="#FFA1CA"/>
  <path d="M19.7083 6.41667V7.33333C19.7083 8.34167 19.2225 9.16667 17.875 9.16667H4.12496C2.72246 9.16667 2.29163 8.34167 2.29163 7.33333V6.41667C2.29163 5.40833 2.72246 4.58333 4.12496 4.58333H17.875C19.2225 4.58333 19.7083 5.40833 19.7083 6.41667Z" fill="#FFA1CA"/>
  <path d="M10.67 4.58283H5.61001C5.29834 4.24366 5.30751 3.72116 5.63751 3.39116L6.93917 2.0895C7.27834 1.75033 7.83751 1.75033 8.17667 2.0895L10.67 4.58283Z" fill="#FFA1CA"/>
  <path d="M16.3809 4.58283H11.3209L13.8143 2.0895C14.1534 1.75033 14.7126 1.75033 15.0518 2.0895L16.3534 3.39116C16.6834 3.72116 16.6926 4.24366 16.3809 4.58283Z" fill="#FFA1CA"/>
  <path d="M12.8057 10.0833C13.3099 10.0833 13.7224 10.4958 13.7224 11V13.8692C13.7224 14.6025 12.9066 15.0425 12.3016 14.63L11.4766 14.08C11.1741 13.8783 10.7799 13.8783 10.4682 14.08L9.60658 14.6483C9.00161 15.0517 8.19495 14.6117 8.19495 13.8875V11C8.19495 10.4958 8.60745 10.0833 9.11161 10.0833H12.8057Z" fill="#FFA1CA"/>
</svg>
