<svg xmlns="http://www.w3.org/2000/svg" width="22" height="22" viewBox="0 0 22 22" fill="none">
  <path d="M19.9268 7.33657C19.5268 7.12286 18.6878 6.89943 17.5463 7.696L16.1122 8.70629C16.0049 5.68514 14.6878 4.5 11.4878 4.5H5.63415C2.29756 4.5 1 5.792 1 9.11429V16.8857C1 19.12 2.21951 21.5 5.63415 21.5H11.4878C14.6878 21.5 16.0049 20.3149 16.1122 17.2937L17.5463 18.304C18.1512 18.7314 18.678 18.8674 19.0976 18.8674C19.4585 18.8674 19.7415 18.7606 19.9268 18.6634C20.3268 18.4594 21 17.9057 21 16.5166V9.48343C21 8.09429 20.3268 7.54057 19.9268 7.33657ZM10.0244 12.3977C9.01951 12.3977 8.19024 11.5817 8.19024 10.5714C8.19024 9.56114 9.01951 8.74514 10.0244 8.74514C11.0293 8.74514 11.8585 9.56114 11.8585 10.5714C11.8585 11.5817 11.0293 12.3977 10.0244 12.3977Z" fill="white"/>
</svg>
