<svg xmlns="http://www.w3.org/2000/svg" width="22" height="22" viewBox="0 0 22 22" fill="none">
  <path d="M12.5431 17.9271L11.5273 17.6381C10.9035 17.451 10.4796 16.8559 10.4796 16.1588C10.4796 15.4616 10.9035 14.858 11.5593 14.6625L12.5431 14.3904C13.039 14.2459 13.3989 13.8548 13.5348 13.3447L13.7988 12.3075L13.8548 12.112C14.0707 11.5254 14.5826 11.1173 15.1824 11.1173C15.7983 11.1173 16.3261 11.4914 16.5341 12.078L16.862 13.3192C16.918 13.5233 17.006 13.6933 17.1259 13.8463C17.3979 13.1917 17.6058 12.5116 17.7258 11.7719C18.6216 5.95682 13.9587 1.00036 8.48811 1.95255C5.16097 2.53066 2.48165 5.37871 1.94578 8.90687C1.66585 10.7432 1.93779 12.4861 2.60962 13.9909C2.72159 14.2459 2.77757 14.6795 2.71359 14.96L2.16973 17.3745C1.98577 18.1822 2.44966 18.6752 3.20947 18.4797C4.00127 18.2842 4.93703 18.0376 5.48889 17.9016C5.75282 17.8336 6.15272 17.8931 6.39266 18.0121C7.87229 18.7603 9.59983 19.0408 11.3994 18.6752C11.9512 18.5647 12.4711 18.3777 12.975 18.1567C12.847 18.0546 12.703 17.9781 12.5431 17.9271ZM10.9435 5.49773C11.0635 5.17467 11.4154 5.01313 11.7193 5.13216C13.1189 5.71027 14.2147 6.892 14.7425 8.37978C14.8625 8.71134 14.7025 9.07691 14.3906 9.19593C14.3266 9.22994 14.2547 9.23844 14.1827 9.23844C13.9347 9.23844 13.7108 9.08541 13.6228 8.83036C13.2149 7.68265 12.3671 6.76447 11.2874 6.32239C10.9835 6.19486 10.8315 5.82929 10.9435 5.49773Z" fill="#FFD402"/>
  <path d="M19.0002 16.0191C19.0002 16.0891 18.9614 16.2444 18.7749 16.3066L17.7883 16.5785C16.9414 16.8116 16.3044 17.4487 16.0713 18.2955L15.8071 19.2589C15.745 19.4764 15.5741 19.4997 15.4964 19.4997C15.4187 19.4997 15.2477 19.4764 15.1856 19.2589L14.9214 18.2877C14.6884 17.4487 14.0435 16.8116 13.2045 16.5785L12.2333 16.3144C12.0236 16.2522 12.0002 16.0735 12.0002 16.0036C12.0002 15.9259 12.0236 15.7472 12.2333 15.6851L13.2122 15.4287C14.0513 15.1878 14.6884 14.5508 14.9214 13.7117L15.2011 12.6939C15.2711 12.523 15.4264 12.4997 15.4964 12.4997C15.5663 12.4997 15.7294 12.523 15.7916 12.6784L16.0713 13.7039C16.3044 14.543 16.9492 15.1801 17.7883 15.4209L18.7905 15.6928C18.9925 15.7705 19.0002 15.957 19.0002 16.0191Z" fill="#FFD402"/>
</svg>
